<svg width="200" height="200" viewBox="0 0 200 200" fill="none" xmlns="http://www.w3.org/2000/svg">
<path d="M0.123797 152.815C9.53695 164.367 21.4126 173.668 34.8825 180.04C48.3524 186.412 63.076 189.693 77.9769 189.643C92.8778 189.594 107.579 186.215 121.006 179.753C134.434 173.292 146.247 163.911 155.583 152.298C164.919 140.684 171.542 127.131 174.967 112.629C178.392 98.1266 178.532 83.0425 175.379 68.4791C172.225 53.9157 165.856 40.2412 156.739 28.4553C147.621 16.6695 135.984 7.07021 122.68 0.359373L94.5574 56.113C99.5538 58.6333 103.924 62.2383 107.348 66.6645C110.772 71.0907 113.164 76.2262 114.348 81.6955C115.533 87.1648 115.48 92.8296 114.194 98.2759C112.907 103.722 110.42 108.812 106.914 113.174C103.408 117.535 98.9714 121.058 93.9288 123.485C88.8862 125.911 83.3651 127.18 77.769 127.199C72.173 127.218 66.6435 125.985 61.5848 123.592C56.5262 121.199 52.0663 117.706 48.5312 113.368L0.123797 152.815Z" fill="#11224e"/>
</svg>
