<svg width="100" height="100" viewBox="0 0 100 100" fill="none" xmlns="http://www.w3.org/2000/svg">
<path d="M0.561899 76.9077C5.26848 82.6833 11.2063 87.3341 17.9413 90.52C24.6762 93.706 32.038 95.3465 39.4885 95.3217C46.9389 95.2969 54.2896 93.6074 61.0032 90.3767C67.7168 87.1459 73.6235 82.4557 78.2915 76.6489C82.9596 70.842 86.2708 64.0654 87.9833 56.8143C89.6958 49.5633 89.7662 42.0213 88.1893 34.7396C86.6124 27.4579 83.4281 20.6206 78.8693 14.7277C74.3104 8.83473 68.4922 4.0351 61.8401 0.679686L47.7787 28.5565C50.2769 29.8166 52.4619 31.6191 54.174 33.8322C55.8861 36.0453 57.082 38.6131 57.6742 41.3477C58.2664 44.0824 58.2399 46.9148 57.5968 49.638C56.9537 52.3611 55.7101 54.9061 53.957 57.0868C52.204 59.2676 49.9857 61.029 47.4644 62.2423C44.9431 63.4556 42.1825 64.0901 39.3845 64.0994C36.5865 64.1088 33.8217 63.4927 31.2924 62.2962C28.7631 61.0997 26.5331 59.3531 24.7656 57.184L0.561899 76.9077Z" fill="#4ba661"/>
</svg>
