<svg width="300" height="300" viewBox="0 0 300 300" fill="none" xmlns="http://www.w3.org/2000/svg">
<path d="M0.685696 228.723C14.8054 246.05 32.6189 260.002 52.8238 269.56C73.0286 279.118 95.1141 284.04 117.465 283.965C139.817 283.891 161.869 278.822 182.01 269.13C202.15 259.438 219.871 245.367 233.875 227.947C247.879 210.526 257.813 190.196 262.95 168.443C268.087 146.69 268.298 124.064 263.568 102.219C258.837 80.3736 249.284 59.8618 235.608 42.183C221.931 24.5042 204.477 10.1053 184.52 0.0390592L142.336 83.6695C149.831 87.4499 156.386 92.8574 161.522 99.4967C166.658 106.136 170.246 113.839 172.022 122.043C173.799 130.247 173.72 138.744 171.79 146.914C169.861 155.083 166.13 162.718 160.871 169.26C155.612 175.803 148.957 181.087 141.393 184.727C133.829 188.367 125.548 190.27 117.154 190.298C108.759 190.326 100.465 188.478 92.8772 184.889C85.2893 181.299 78.5994 176.059 73.2967 169.552L0.685696 228.723Z" fill="#dc413c"/>
</svg>
